<svg width="193" height="49" viewBox="0 0 193 49" fill="none" xmlns="http://www.w3.org/2000/svg">
<g filter="url(#filter0_d_2318_8702)">
<rect x="4" width="185" height="41" rx="20.5" fill="#00AEEF" shape-rendering="crispEdges"/>
<path d="M53.296 23.98V20.056H55.51V25.078C54.196 26.14 52.36 26.68 50.578 26.68C46.672 26.68 43.792 23.962 43.792 20.2C43.792 16.438 46.672 13.72 50.614 13.72C52.72 13.72 54.484 14.422 55.672 15.772L54.196 17.212C53.206 16.222 52.072 15.772 50.722 15.772C48.04 15.772 46.15 17.59 46.15 20.2C46.15 22.756 48.04 24.628 50.704 24.628C51.604 24.628 52.486 24.448 53.296 23.98ZM67.4163 21.748C67.4163 21.928 67.3983 22.198 67.3803 22.414H59.8383C60.1083 23.818 61.2783 24.718 62.9523 24.718C64.0323 24.718 64.8783 24.376 65.5623 23.674L66.7683 25.06C65.9043 26.086 64.5543 26.626 62.8983 26.626C59.6763 26.626 57.5883 24.556 57.5883 21.694C57.5883 18.832 59.6943 16.78 62.5563 16.78C65.3643 16.78 67.4163 18.742 67.4163 21.748ZM62.5563 18.58C61.0983 18.58 60.0363 19.516 59.8203 20.92H65.2743C65.0943 19.534 64.0323 18.58 62.5563 18.58ZM74.7256 24.376L75.3556 25.978C74.8156 26.41 74.0056 26.626 73.1956 26.626C71.0896 26.626 69.8836 25.51 69.8836 23.386V18.76H68.2996V16.96H69.8836V14.764H72.1336V16.96H74.7076V18.76H72.1336V23.332C72.1336 24.268 72.6016 24.772 73.4656 24.772C73.9336 24.772 74.3836 24.646 74.7256 24.376ZM86.3031 26.68C84.3411 26.68 82.3791 26.068 81.3351 25.168L82.1451 23.35C83.1531 24.16 84.7551 24.736 86.3031 24.736C88.2651 24.736 89.0931 24.034 89.0931 23.098C89.0931 20.38 81.6051 22.162 81.6051 17.482C81.6051 15.448 83.2251 13.72 86.6811 13.72C88.1931 13.72 89.7771 14.116 90.8751 14.836L90.1371 16.654C89.0031 15.988 87.7611 15.664 86.6631 15.664C84.7191 15.664 83.9271 16.42 83.9271 17.374C83.9271 20.056 91.3971 18.31 91.3971 22.936C91.3971 24.952 89.7591 26.68 86.3031 26.68ZM98.6494 24.376L99.2794 25.978C98.7394 26.41 97.9294 26.626 97.1194 26.626C95.0134 26.626 93.8074 25.51 93.8074 23.386V18.76H92.2234V16.96H93.8074V14.764H96.0574V16.96H98.6314V18.76H96.0574V23.332C96.0574 24.268 96.5254 24.772 97.3894 24.772C97.8574 24.772 98.3074 24.646 98.6494 24.376ZM104.802 16.78C107.574 16.78 109.176 18.094 109.176 20.866V26.5H107.052V25.33C106.512 26.158 105.468 26.626 104.028 26.626C101.832 26.626 100.446 25.42 100.446 23.746C100.446 22.144 101.526 20.884 104.442 20.884H106.926V20.74C106.926 19.426 106.134 18.652 104.532 18.652C103.452 18.652 102.336 19.012 101.616 19.606L100.734 17.968C101.76 17.176 103.254 16.78 104.802 16.78ZM104.496 24.988C105.594 24.988 106.548 24.484 106.926 23.494V22.378H104.604C103.074 22.378 102.66 22.954 102.66 23.656C102.66 24.466 103.344 24.988 104.496 24.988ZM114.206 18.292C114.854 17.284 116.024 16.78 117.626 16.78V18.922C117.428 18.886 117.266 18.868 117.104 18.868C115.394 18.868 114.314 19.876 114.314 21.838V26.5H112.064V16.888H114.206V18.292ZM125.034 24.376L125.664 25.978C125.124 26.41 124.314 26.626 123.504 26.626C121.398 26.626 120.192 25.51 120.192 23.386V18.76H118.608V16.96H120.192V14.764H122.442V16.96H125.016V18.76H122.442V23.332C122.442 24.268 122.91 24.772 123.774 24.772C124.242 24.772 124.692 24.646 125.034 24.376ZM136.235 21.748C136.235 21.928 136.217 22.198 136.199 22.414H128.657C128.927 23.818 130.097 24.718 131.771 24.718C132.851 24.718 133.697 24.376 134.381 23.674L135.587 25.06C134.723 26.086 133.373 26.626 131.717 26.626C128.495 26.626 126.407 24.556 126.407 21.694C126.407 18.832 128.513 16.78 131.375 16.78C134.183 16.78 136.235 18.742 136.235 21.748ZM131.375 18.58C129.917 18.58 128.855 19.516 128.639 20.92H134.093C133.913 19.534 132.851 18.58 131.375 18.58ZM145.56 13.144H147.81V26.5H145.65V25.258C144.894 26.176 143.778 26.626 142.464 26.626C139.674 26.626 137.604 24.682 137.604 21.694C137.604 18.706 139.674 16.78 142.464 16.78C143.706 16.78 144.804 17.194 145.56 18.076V13.144ZM142.734 24.7C144.354 24.7 145.596 23.53 145.596 21.694C145.596 19.858 144.354 18.688 142.734 18.688C141.114 18.688 139.872 19.858 139.872 21.694C139.872 23.53 141.114 24.7 142.734 24.7Z" fill="black"/>
</g>
<defs>
<filter id="filter0_d_2318_8702" x="0" y="0" width="193" height="49" filterUnits="userSpaceOnUse" color-interpolation-filters="sRGB">
<feFlood flood-opacity="0" result="BackgroundImageFix"/>
<feColorMatrix in="SourceAlpha" type="matrix" values="0 0 0 0 0 0 0 0 0 0 0 0 0 0 0 0 0 0 127 0" result="hardAlpha"/>
<feOffset dy="4"/>
<feGaussianBlur stdDeviation="2"/>
<feComposite in2="hardAlpha" operator="out"/>
<feColorMatrix type="matrix" values="0 0 0 0 0 0 0 0 0 0 0 0 0 0 0 0 0 0 0.25 0"/>
<feBlend mode="normal" in2="BackgroundImageFix" result="effect1_dropShadow_2318_8702"/>
<feBlend mode="normal" in="SourceGraphic" in2="effect1_dropShadow_2318_8702" result="shape"/>
</filter>
</defs>
</svg>
