<svg width="166" height="43" viewBox="0 0 166 43" fill="none" xmlns="http://www.w3.org/2000/svg">
<g filter="url(#filter0_d_2332_8066)">
<rect x="4" width="158" height="35" rx="17.5" fill="white" shape-rendering="crispEdges"/>
<path d="M47.08 20.4V17.13H48.925V21.315C47.83 22.2 46.3 22.65 44.815 22.65C41.56 22.65 39.16 20.385 39.16 17.25C39.16 14.115 41.56 11.85 44.845 11.85C46.6 11.85 48.07 12.435 49.06 13.56L47.83 14.76C47.005 13.935 46.06 13.56 44.935 13.56C42.7 13.56 41.125 15.075 41.125 17.25C41.125 19.38 42.7 20.94 44.92 20.94C45.67 20.94 46.405 20.79 47.08 20.4ZM58.8469 18.54C58.8469 18.69 58.8319 18.915 58.8169 19.095H52.5319C52.7569 20.265 53.7319 21.015 55.1269 21.015C56.0269 21.015 56.7319 20.73 57.3019 20.145L58.3069 21.3C57.5869 22.155 56.4619 22.605 55.0819 22.605C52.3969 22.605 50.6569 20.88 50.6569 18.495C50.6569 16.11 52.4119 14.4 54.7969 14.4C57.1369 14.4 58.8469 16.035 58.8469 18.54ZM54.7969 15.9C53.5819 15.9 52.6969 16.68 52.5169 17.85H57.0619C56.9119 16.695 56.0269 15.9 54.7969 15.9ZM64.938 20.73L65.463 22.065C65.013 22.425 64.338 22.605 63.663 22.605C61.908 22.605 60.903 21.675 60.903 19.905V16.05H59.583V14.55H60.903V12.72H62.778V14.55H64.923V16.05H62.778V19.86C62.778 20.64 63.168 21.06 63.888 21.06C64.278 21.06 64.653 20.955 64.938 20.73ZM74.5859 22.65C72.9509 22.65 71.3159 22.14 70.4459 21.39L71.1209 19.875C71.9609 20.55 73.2959 21.03 74.5859 21.03C76.2209 21.03 76.9109 20.445 76.9109 19.665C76.9109 17.4 70.6709 18.885 70.6709 14.985C70.6709 13.29 72.0209 11.85 74.9009 11.85C76.1609 11.85 77.4809 12.18 78.3959 12.78L77.7809 14.295C76.8359 13.74 75.8009 13.47 74.8859 13.47C73.2659 13.47 72.6059 14.1 72.6059 14.895C72.6059 17.13 78.8309 15.675 78.8309 19.53C78.8309 21.21 77.4659 22.65 74.5859 22.65ZM84.8745 20.73L85.3995 22.065C84.9495 22.425 84.2745 22.605 83.5995 22.605C81.8445 22.605 80.8395 21.675 80.8395 19.905V16.05H79.5195V14.55H80.8395V12.72H82.7145V14.55H84.8595V16.05H82.7145V19.86C82.7145 20.64 83.1045 21.06 83.8245 21.06C84.2145 21.06 84.5895 20.955 84.8745 20.73ZM90.0019 14.4C92.3119 14.4 93.6469 15.495 93.6469 17.805V22.5H91.8769V21.525C91.4269 22.215 90.5569 22.605 89.3569 22.605C87.5269 22.605 86.3719 21.6 86.3719 20.205C86.3719 18.87 87.2719 17.82 89.7019 17.82H91.7719V17.7C91.7719 16.605 91.1119 15.96 89.7769 15.96C88.8769 15.96 87.9469 16.26 87.3469 16.755L86.6119 15.39C87.4669 14.73 88.7119 14.4 90.0019 14.4ZM89.7469 21.24C90.6619 21.24 91.4569 20.82 91.7719 19.995V19.065H89.8369C88.5619 19.065 88.2169 19.545 88.2169 20.13C88.2169 20.805 88.7869 21.24 89.7469 21.24ZM97.8382 15.66C98.3782 14.82 99.3532 14.4 100.688 14.4V16.185C100.523 16.155 100.388 16.14 100.253 16.14C98.8282 16.14 97.9282 16.98 97.9282 18.615V22.5H96.0532V14.49H97.8382V15.66ZM106.862 20.73L107.387 22.065C106.937 22.425 106.262 22.605 105.587 22.605C103.832 22.605 102.827 21.675 102.827 19.905V16.05H101.507V14.55H102.827V12.72H104.702V14.55H106.847V16.05H104.702V19.86C104.702 20.64 105.092 21.06 105.812 21.06C106.202 21.06 106.577 20.955 106.862 20.73ZM116.196 18.54C116.196 18.69 116.181 18.915 116.166 19.095H109.881C110.106 20.265 111.081 21.015 112.476 21.015C113.376 21.015 114.081 20.73 114.651 20.145L115.656 21.3C114.936 22.155 113.811 22.605 112.431 22.605C109.746 22.605 108.006 20.88 108.006 18.495C108.006 16.11 109.761 14.4 112.146 14.4C114.486 14.4 116.196 16.035 116.196 18.54ZM112.146 15.9C110.931 15.9 110.046 16.68 109.866 17.85H114.411C114.261 16.695 113.376 15.9 112.146 15.9ZM123.967 11.37H125.842V22.5H124.042V21.465C123.412 22.23 122.482 22.605 121.387 22.605C119.062 22.605 117.337 20.985 117.337 18.495C117.337 16.005 119.062 14.4 121.387 14.4C122.422 14.4 123.337 14.745 123.967 15.48V11.37ZM121.612 21C122.962 21 123.997 20.025 123.997 18.495C123.997 16.965 122.962 15.99 121.612 15.99C120.262 15.99 119.227 16.965 119.227 18.495C119.227 20.025 120.262 21 121.612 21Z" fill="black"/>
</g>
<defs>
<filter id="filter0_d_2332_8066" x="0" y="0" width="166" height="43" filterUnits="userSpaceOnUse" color-interpolation-filters="sRGB">
<feFlood flood-opacity="0" result="BackgroundImageFix"/>
<feColorMatrix in="SourceAlpha" type="matrix" values="0 0 0 0 0 0 0 0 0 0 0 0 0 0 0 0 0 0 127 0" result="hardAlpha"/>
<feOffset dy="4"/>
<feGaussianBlur stdDeviation="2"/>
<feComposite in2="hardAlpha" operator="out"/>
<feColorMatrix type="matrix" values="0 0 0 0 0 0 0 0 0 0 0 0 0 0 0 0 0 0 0.25 0"/>
<feBlend mode="normal" in2="BackgroundImageFix" result="effect1_dropShadow_2332_8066"/>
<feBlend mode="normal" in="SourceGraphic" in2="effect1_dropShadow_2332_8066" result="shape"/>
</filter>
</defs>
</svg>
