<svg width="78" height="24" viewBox="0 0 78 24" fill="none" xmlns="http://www.w3.org/2000/svg">
<rect x="0.5" y="0.5" width="77" height="23" rx="11.5" fill="#0077C7"/>
<rect x="0.5" y="0.5" width="77" height="23" rx="11.5" stroke="white"/>
<path d="M24.342 17.64C23.11 17.64 21.99 17.136 21.318 16.226L22.354 14.98C22.886 15.708 23.53 16.1 24.3 16.1C25.308 16.1 25.826 15.498 25.826 14.294V9.226H22.34V7.7H27.646V14.196C27.646 16.506 26.498 17.64 24.342 17.64ZM34.7768 17.64C31.7388 17.64 29.4988 15.498 29.4988 12.6C29.4988 9.702 31.7388 7.56 34.7768 7.56C37.8148 7.56 40.0548 9.688 40.0548 12.6C40.0548 15.512 37.8148 17.64 34.7768 17.64ZM34.7768 16.044C36.7508 16.044 38.2208 14.602 38.2208 12.6C38.2208 10.598 36.7508 9.156 34.7768 9.156C32.8028 9.156 31.3328 10.598 31.3328 12.6C31.3328 14.602 32.8028 16.044 34.7768 16.044ZM41.984 17.5V7.7H43.804V17.5H41.984ZM53.3567 7.7H55.1627V17.5H53.6647L48.2607 10.864V17.5H46.4547V7.7H47.9527L53.3567 14.336V7.7Z" fill="white"/>
</svg>
