<svg width="41" height="13" viewBox="0 0 41 13" fill="none" xmlns="http://www.w3.org/2000/svg">
<path d="M3.497 8.453C3.783 8.453 4.017 8.43133 4.199 8.388C4.38967 8.336 4.54133 8.271 4.654 8.193C4.76667 8.10633 4.84467 8.00667 4.888 7.894C4.93133 7.78133 4.953 7.65567 4.953 7.517C4.953 7.22233 4.81433 6.97967 4.537 6.789C4.25967 6.58967 3.783 6.37733 3.107 6.152C2.81233 6.048 2.51767 5.931 2.223 5.801C1.92833 5.66233 1.664 5.49333 1.43 5.294C1.196 5.086 1.00533 4.839 0.858 4.553C0.710667 4.25833 0.637 3.903 0.637 3.487C0.637 3.071 0.715 2.69833 0.871 2.369C1.027 2.031 1.248 1.745 1.534 1.511C1.82 1.277 2.16667 1.09933 2.574 0.978C2.98133 0.848 3.44067 0.782999 3.952 0.782999C4.55867 0.782999 5.083 0.848 5.525 0.978C5.967 1.108 6.331 1.251 6.617 1.407L6.032 3.006C5.78067 2.876 5.499 2.76333 5.187 2.668C4.88367 2.564 4.51533 2.512 4.082 2.512C3.59667 2.512 3.24567 2.58133 3.029 2.72C2.821 2.85 2.717 3.05367 2.717 3.331C2.717 3.49567 2.756 3.63433 2.834 3.747C2.912 3.85967 3.02033 3.96367 3.159 4.059C3.30633 4.14567 3.471 4.228 3.653 4.306C3.84367 4.37533 4.05167 4.449 4.277 4.527C4.745 4.70033 5.15233 4.87367 5.499 5.047C5.84567 5.21167 6.13167 5.40667 6.357 5.632C6.591 5.85733 6.76433 6.12167 6.877 6.425C6.98967 6.72833 7.046 7.09667 7.046 7.53C7.046 8.37067 6.75133 9.025 6.162 9.493C5.57267 9.95233 4.68433 10.182 3.497 10.182C3.09833 10.182 2.73867 10.156 2.418 10.104C2.09733 10.0607 1.81133 10.0043 1.56 9.935C1.31733 9.86567 1.105 9.792 0.923 9.714C0.749667 9.636 0.602333 9.56233 0.481 9.493L1.053 7.881C1.32167 8.02833 1.651 8.16267 2.041 8.284C2.43967 8.39667 2.925 8.453 3.497 8.453ZM10.4134 10H8.47641V3.162H10.4134V10ZM10.5954 1.186C10.5954 1.54133 10.4784 1.823 10.2444 2.031C10.0191 2.23033 9.75041 2.33 9.43841 2.33C9.12641 2.33 8.85341 2.23033 8.61941 2.031C8.39407 1.823 8.28141 1.54133 8.28141 1.186C8.28141 0.830666 8.39407 0.553333 8.61941 0.353999C8.85341 0.146 9.12641 0.0419996 9.43841 0.0419996C9.75041 0.0419996 10.0191 0.146 10.2444 0.353999C10.4784 0.553333 10.5954 0.830666 10.5954 1.186ZM13.8852 6.36C13.8852 7.44333 14.3229 7.985 15.1982 7.985C15.3976 7.985 15.5839 7.959 15.7572 7.907C15.9306 7.855 16.0779 7.79433 16.1992 7.725V4.631C16.1039 4.61367 15.9912 4.60067 15.8612 4.592C15.7312 4.57467 15.5796 4.566 15.4062 4.566C14.8949 4.566 14.5136 4.735 14.2622 5.073C14.0109 5.411 13.8852 5.84 13.8852 6.36ZM18.1362 9.142C18.1362 10.26 17.8502 11.0877 17.2782 11.625C16.7149 12.171 15.8396 12.444 14.6522 12.444C14.2362 12.444 13.8202 12.405 13.4042 12.327C12.9882 12.2577 12.6026 12.1623 12.2472 12.041L12.5852 10.416C12.8886 10.5373 13.2049 10.6327 13.5342 10.702C13.8722 10.7713 14.2536 10.806 14.6782 10.806C15.2329 10.806 15.6229 10.6847 15.8482 10.442C16.0822 10.1993 16.1992 9.88733 16.1992 9.506V9.259C15.9912 9.35433 15.7746 9.428 15.5492 9.48C15.3326 9.52333 15.0942 9.545 14.8342 9.545C13.8896 9.545 13.1659 9.26767 12.6632 8.713C12.1606 8.14967 11.9092 7.36533 11.9092 6.36C11.9092 5.85733 11.9872 5.40233 12.1432 4.995C12.2992 4.579 12.5246 4.22367 12.8192 3.929C13.1226 3.63433 13.4909 3.409 13.9242 3.253C14.3576 3.08833 14.8472 3.006 15.3932 3.006C15.6272 3.006 15.8656 3.019 16.1082 3.045C16.3596 3.06233 16.6066 3.08833 16.8492 3.123C17.0919 3.15767 17.3216 3.201 17.5382 3.253C17.7636 3.29633 17.9629 3.344 18.1362 3.396V9.142ZM19.953 3.396C20.2823 3.30067 20.707 3.214 21.227 3.136C21.747 3.04933 22.293 3.006 22.865 3.006C23.4456 3.006 23.9266 3.084 24.308 3.24C24.698 3.38733 25.0056 3.59967 25.231 3.877C25.4563 4.15433 25.6166 4.48367 25.712 4.865C25.8073 5.24633 25.855 5.671 25.855 6.139V10H23.918V6.373C23.918 5.749 23.8356 5.307 23.671 5.047C23.5063 4.787 23.1986 4.657 22.748 4.657C22.6093 4.657 22.462 4.66567 22.306 4.683C22.15 4.69167 22.0113 4.70467 21.89 4.722V10H19.953V3.396ZM30.8613 0.991H32.8893V10H30.8613V0.991ZM34.8446 3.396C35.1739 3.30067 35.5986 3.214 36.1186 3.136C36.6386 3.04933 37.1846 3.006 37.7566 3.006C38.3372 3.006 38.8182 3.084 39.1996 3.24C39.5896 3.38733 39.8972 3.59967 40.1226 3.877C40.3479 4.15433 40.5082 4.48367 40.6036 4.865C40.6989 5.24633 40.7466 5.671 40.7466 6.139V10H38.8096V6.373C38.8096 5.749 38.7272 5.307 38.5626 5.047C38.3979 4.787 38.0902 4.657 37.6396 4.657C37.5009 4.657 37.3536 4.66567 37.1976 4.683C37.0416 4.69167 36.9029 4.70467 36.7816 4.722V10H34.8446V3.396Z" fill="black"/>
</svg>
