<svg width="830" height="107" viewBox="0 0 830 107" fill="none" xmlns="http://www.w3.org/2000/svg">
<g filter="url(#filter0_d_2318_8657)">
<rect x="4" width="822" height="99" rx="30" fill="#00AEEF" shape-rendering="crispEdges"/>
<path d="M348.016 55.58V49.476H351.46V57.288C349.416 58.94 346.56 59.78 343.788 59.78C337.712 59.78 333.232 55.552 333.232 49.7C333.232 43.848 337.712 39.62 343.844 39.62C347.12 39.62 349.864 40.712 351.712 42.812L349.416 45.052C347.876 43.512 346.112 42.812 344.012 42.812C339.84 42.812 336.9 45.64 336.9 49.7C336.9 53.676 339.84 56.588 343.984 56.588C345.384 56.588 346.756 56.308 348.016 55.58ZM369.981 52.108C369.981 52.388 369.953 52.808 369.925 53.144H358.193C358.613 55.328 360.433 56.728 363.037 56.728C364.717 56.728 366.033 56.196 367.097 55.104L368.973 57.26C367.629 58.856 365.529 59.696 362.953 59.696C357.941 59.696 354.693 56.476 354.693 52.024C354.693 47.572 357.969 44.38 362.421 44.38C366.789 44.38 369.981 47.432 369.981 52.108ZM362.421 47.18C360.153 47.18 358.501 48.636 358.165 50.82H366.649C366.369 48.664 364.717 47.18 362.421 47.18ZM381.351 56.196L382.331 58.688C381.491 59.36 380.231 59.696 378.971 59.696C375.695 59.696 373.819 57.96 373.819 54.656V47.46H371.355V44.66H373.819V41.244H377.319V44.66H381.323V47.46H377.319V54.572C377.319 56.028 378.047 56.812 379.391 56.812C380.119 56.812 380.819 56.616 381.351 56.196ZM399.36 59.78C396.308 59.78 393.256 58.828 391.632 57.428L392.892 54.6C394.46 55.86 396.952 56.756 399.36 56.756C402.412 56.756 403.7 55.664 403.7 54.208C403.7 49.98 392.052 52.752 392.052 45.472C392.052 42.308 394.572 39.62 399.948 39.62C402.3 39.62 404.764 40.236 406.472 41.356L405.324 44.184C403.56 43.148 401.628 42.644 399.92 42.644C396.896 42.644 395.664 43.82 395.664 45.304C395.664 49.476 407.284 46.76 407.284 53.956C407.284 57.092 404.736 59.78 399.36 59.78ZM418.566 56.196L419.546 58.688C418.706 59.36 417.446 59.696 416.186 59.696C412.91 59.696 411.034 57.96 411.034 54.656V47.46H408.57V44.66H411.034V41.244H414.534V44.66H418.538V47.46H414.534V54.572C414.534 56.028 415.262 56.812 416.606 56.812C417.334 56.812 418.034 56.616 418.566 56.196ZM428.137 44.38C432.449 44.38 434.941 46.424 434.941 50.736V59.5H431.637V57.68C430.797 58.968 429.173 59.696 426.933 59.696C423.517 59.696 421.361 57.82 421.361 55.216C421.361 52.724 423.041 50.764 427.577 50.764H431.441V50.54C431.441 48.496 430.209 47.292 427.717 47.292C426.037 47.292 424.301 47.852 423.181 48.776L421.809 46.228C423.405 44.996 425.729 44.38 428.137 44.38ZM427.661 57.148C429.369 57.148 430.853 56.364 431.441 54.824V53.088H427.829C425.449 53.088 424.805 53.984 424.805 55.076C424.805 56.336 425.869 57.148 427.661 57.148ZM442.765 46.732C443.773 45.164 445.593 44.38 448.085 44.38V47.712C447.777 47.656 447.525 47.628 447.273 47.628C444.613 47.628 442.933 49.196 442.933 52.248V59.5H439.433V44.548H442.765V46.732ZM459.609 56.196L460.589 58.688C459.749 59.36 458.489 59.696 457.229 59.696C453.953 59.696 452.077 57.96 452.077 54.656V47.46H449.613V44.66H452.077V41.244H455.577V44.66H459.581V47.46H455.577V54.572C455.577 56.028 456.305 56.812 457.649 56.812C458.377 56.812 459.077 56.616 459.609 56.196ZM477.032 52.108C477.032 52.388 477.004 52.808 476.976 53.144H465.244C465.664 55.328 467.484 56.728 470.088 56.728C471.768 56.728 473.084 56.196 474.148 55.104L476.024 57.26C474.68 58.856 472.58 59.696 470.004 59.696C464.992 59.696 461.744 56.476 461.744 52.024C461.744 47.572 465.02 44.38 469.472 44.38C473.84 44.38 477.032 47.432 477.032 52.108ZM469.472 47.18C467.204 47.18 465.552 48.636 465.216 50.82H473.7C473.42 48.664 471.768 47.18 469.472 47.18ZM491.538 38.724H495.038V59.5H491.678V57.568C490.502 58.996 488.766 59.696 486.722 59.696C482.382 59.696 479.162 56.672 479.162 52.024C479.162 47.376 482.382 44.38 486.722 44.38C488.654 44.38 490.362 45.024 491.538 46.396V38.724ZM487.142 56.7C489.662 56.7 491.594 54.88 491.594 52.024C491.594 49.168 489.662 47.348 487.142 47.348C484.622 47.348 482.69 49.168 482.69 52.024C482.69 54.88 484.622 56.7 487.142 56.7Z" fill="black"/>
</g>
<defs>
<filter id="filter0_d_2318_8657" x="0" y="0" width="830" height="107" filterUnits="userSpaceOnUse" color-interpolation-filters="sRGB">
<feFlood flood-opacity="0" result="BackgroundImageFix"/>
<feColorMatrix in="SourceAlpha" type="matrix" values="0 0 0 0 0 0 0 0 0 0 0 0 0 0 0 0 0 0 127 0" result="hardAlpha"/>
<feOffset dy="4"/>
<feGaussianBlur stdDeviation="2"/>
<feComposite in2="hardAlpha" operator="out"/>
<feColorMatrix type="matrix" values="0 0 0 0 0 0 0 0 0 0 0 0 0 0 0 0 0 0 0.25 0"/>
<feBlend mode="normal" in2="BackgroundImageFix" result="effect1_dropShadow_2318_8657"/>
<feBlend mode="normal" in="SourceGraphic" in2="effect1_dropShadow_2318_8657" result="shape"/>
</filter>
</defs>
</svg>
