<svg width="533" height="77" viewBox="0 0 533 77" fill="none" xmlns="http://www.w3.org/2000/svg">
<g filter="url(#filter0_d_2318_8647)">
<rect x="4" width="525" height="69" rx="30" fill="white" shape-rendering="crispEdges"/>
<path d="M199.516 40.58V34.476H202.96V42.288C200.916 43.94 198.06 44.78 195.288 44.78C189.212 44.78 184.732 40.552 184.732 34.7C184.732 28.848 189.212 24.62 195.344 24.62C198.62 24.62 201.364 25.712 203.212 27.812L200.916 30.052C199.376 28.512 197.612 27.812 195.512 27.812C191.34 27.812 188.4 30.64 188.4 34.7C188.4 38.676 191.34 41.588 195.484 41.588C196.884 41.588 198.256 41.308 199.516 40.58ZM221.481 37.108C221.481 37.388 221.453 37.808 221.425 38.144H209.693C210.113 40.328 211.933 41.728 214.537 41.728C216.217 41.728 217.533 41.196 218.597 40.104L220.473 42.26C219.129 43.856 217.029 44.696 214.453 44.696C209.441 44.696 206.193 41.476 206.193 37.024C206.193 32.572 209.469 29.38 213.921 29.38C218.289 29.38 221.481 32.432 221.481 37.108ZM213.921 32.18C211.653 32.18 210.001 33.636 209.665 35.82H218.149C217.869 33.664 216.217 32.18 213.921 32.18ZM232.851 41.196L233.831 43.688C232.991 44.36 231.731 44.696 230.471 44.696C227.195 44.696 225.319 42.96 225.319 39.656V32.46H222.855V29.66H225.319V26.244H228.819V29.66H232.823V32.46H228.819V39.572C228.819 41.028 229.547 41.812 230.891 41.812C231.619 41.812 232.319 41.616 232.851 41.196ZM250.86 44.78C247.808 44.78 244.756 43.828 243.132 42.428L244.392 39.6C245.96 40.86 248.452 41.756 250.86 41.756C253.912 41.756 255.2 40.664 255.2 39.208C255.2 34.98 243.552 37.752 243.552 30.472C243.552 27.308 246.072 24.62 251.448 24.62C253.8 24.62 256.264 25.236 257.972 26.356L256.824 29.184C255.06 28.148 253.128 27.644 251.42 27.644C248.396 27.644 247.164 28.82 247.164 30.304C247.164 34.476 258.784 31.76 258.784 38.956C258.784 42.092 256.236 44.78 250.86 44.78ZM270.066 41.196L271.046 43.688C270.206 44.36 268.946 44.696 267.686 44.696C264.41 44.696 262.534 42.96 262.534 39.656V32.46H260.07V29.66H262.534V26.244H266.034V29.66H270.038V32.46H266.034V39.572C266.034 41.028 266.762 41.812 268.106 41.812C268.834 41.812 269.534 41.616 270.066 41.196ZM279.637 29.38C283.949 29.38 286.441 31.424 286.441 35.736V44.5H283.137V42.68C282.297 43.968 280.673 44.696 278.433 44.696C275.017 44.696 272.861 42.82 272.861 40.216C272.861 37.724 274.541 35.764 279.077 35.764H282.941V35.54C282.941 33.496 281.709 32.292 279.217 32.292C277.537 32.292 275.801 32.852 274.681 33.776L273.309 31.228C274.905 29.996 277.229 29.38 279.637 29.38ZM279.161 42.148C280.869 42.148 282.353 41.364 282.941 39.824V38.088H279.329C276.949 38.088 276.305 38.984 276.305 40.076C276.305 41.336 277.369 42.148 279.161 42.148ZM294.265 31.732C295.273 30.164 297.093 29.38 299.585 29.38V32.712C299.277 32.656 299.025 32.628 298.773 32.628C296.113 32.628 294.433 34.196 294.433 37.248V44.5H290.933V29.548H294.265V31.732ZM311.109 41.196L312.089 43.688C311.249 44.36 309.989 44.696 308.729 44.696C305.453 44.696 303.577 42.96 303.577 39.656V32.46H301.113V29.66H303.577V26.244H307.077V29.66H311.081V32.46H307.077V39.572C307.077 41.028 307.805 41.812 309.149 41.812C309.877 41.812 310.577 41.616 311.109 41.196ZM328.532 37.108C328.532 37.388 328.504 37.808 328.476 38.144H316.744C317.164 40.328 318.984 41.728 321.588 41.728C323.268 41.728 324.584 41.196 325.648 40.104L327.524 42.26C326.18 43.856 324.08 44.696 321.504 44.696C316.492 44.696 313.244 41.476 313.244 37.024C313.244 32.572 316.52 29.38 320.972 29.38C325.34 29.38 328.532 32.432 328.532 37.108ZM320.972 32.18C318.704 32.18 317.052 33.636 316.716 35.82H325.2C324.92 33.664 323.268 32.18 320.972 32.18ZM343.038 23.724H346.538V44.5H343.178V42.568C342.002 43.996 340.266 44.696 338.222 44.696C333.882 44.696 330.662 41.672 330.662 37.024C330.662 32.376 333.882 29.38 338.222 29.38C340.154 29.38 341.862 30.024 343.038 31.396V23.724ZM338.642 41.7C341.162 41.7 343.094 39.88 343.094 37.024C343.094 34.168 341.162 32.348 338.642 32.348C336.122 32.348 334.19 34.168 334.19 37.024C334.19 39.88 336.122 41.7 338.642 41.7Z" fill="black"/>
</g>
<defs>
<filter id="filter0_d_2318_8647" x="0" y="0" width="533" height="77" filterUnits="userSpaceOnUse" color-interpolation-filters="sRGB">
<feFlood flood-opacity="0" result="BackgroundImageFix"/>
<feColorMatrix in="SourceAlpha" type="matrix" values="0 0 0 0 0 0 0 0 0 0 0 0 0 0 0 0 0 0 127 0" result="hardAlpha"/>
<feOffset dy="4"/>
<feGaussianBlur stdDeviation="2"/>
<feComposite in2="hardAlpha" operator="out"/>
<feColorMatrix type="matrix" values="0 0 0 0 0 0 0 0 0 0 0 0 0 0 0 0 0 0 0.25 0"/>
<feBlend mode="normal" in2="BackgroundImageFix" result="effect1_dropShadow_2318_8647"/>
<feBlend mode="normal" in="SourceGraphic" in2="effect1_dropShadow_2318_8647" result="shape"/>
</filter>
</defs>
</svg>
