<svg width="56" height="17" viewBox="0 0 56 17" fill="none" xmlns="http://www.w3.org/2000/svg">
<path d="M4.976 13.16C3.232 13.16 1.488 12.616 0.56 11.816L1.28 10.2C2.176 10.92 3.6 11.432 4.976 11.432C6.72 11.432 7.456 10.808 7.456 9.976C7.456 7.56 0.8 9.144 0.8 4.984C0.8 3.176 2.24 1.64 5.312 1.64C6.656 1.64 8.064 1.992 9.04 2.632L8.384 4.248C7.376 3.656 6.272 3.368 5.296 3.368C3.568 3.368 2.864 4.04 2.864 4.888C2.864 7.272 9.504 5.72 9.504 9.832C9.504 11.624 8.048 13.16 4.976 13.16ZM12.3825 3.048C11.6465 3.048 11.1025 2.52 11.1025 1.848C11.1025 1.176 11.6465 0.648 12.3825 0.648C13.1185 0.648 13.6625 1.144 13.6625 1.8C13.6625 2.504 13.1345 3.048 12.3825 3.048ZM11.3745 13V4.456H13.3745V13H11.3745ZM22.5755 4.456H24.4795V11.704C24.4795 14.808 22.8635 16.216 19.8715 16.216C18.2715 16.216 16.6875 15.8 15.7115 15L16.6075 13.496C17.3595 14.12 18.5755 14.52 19.7595 14.52C21.6475 14.52 22.4795 13.656 22.4795 11.928V11.48C21.7755 12.248 20.7675 12.616 19.6155 12.616C17.1675 12.616 15.2955 10.952 15.2955 8.472C15.2955 5.992 17.1675 4.36 19.6155 4.36C20.8155 4.36 21.8715 4.744 22.5755 5.592V4.456ZM19.9195 10.92C21.4235 10.92 22.5115 9.928 22.5115 8.472C22.5115 7.032 21.4235 6.056 19.9195 6.056C18.3995 6.056 17.3115 7.032 17.3115 8.472C17.3115 9.928 18.3995 10.92 19.9195 10.92ZM31.9569 4.36C34.0049 4.36 35.5249 5.528 35.5249 8.104V13H33.5249V8.36C33.5249 6.84 32.7729 6.104 31.4929 6.104C30.0689 6.104 29.1089 6.968 29.1089 8.68V13H27.1089V4.456H29.0129V5.56C29.6689 4.776 30.7089 4.36 31.9569 4.36ZM42.6759 13V1.8H44.7559V13H42.6759ZM52.4413 4.36C54.4893 4.36 56.0093 5.528 56.0093 8.104V13H54.0093V8.36C54.0093 6.84 53.2573 6.104 51.9773 6.104C50.5533 6.104 49.5933 6.968 49.5933 8.68V13H47.5933V4.456H49.4973V5.56C50.1533 4.776 51.1933 4.36 52.4413 4.36Z" fill="black"/>
</svg>
